#define root_width 8
#define root_height 9
static unsigned char root_bits[] = {
   0xff, 0xff, 0x81, 0x81, 0x81, 0x81, 0x81, 0x81, 0xff };
